<?xml version="1.0" encoding="UTF-8" standalone="no"?>
<!-- Created with Inkscape (http://www.inkscape.org/) -->

<svg
   version="1.1"
   id="svg1"
   width="868.47992"
   height="1081.3497"
   viewBox="0 0 868.47996 1081.3497"
   sodipodi:docname="60d.svg"
   inkscape:version="1.3.2 (091e20ef0f, 2023-11-25)"
   xmlns:inkscape="http://www.inkscape.org/namespaces/inkscape"
   xmlns:sodipodi="http://sodipodi.sourceforge.net/DTD/sodipodi-0.dtd"
   xmlns="http://www.w3.org/2000/svg"
   xmlns:svg="http://www.w3.org/2000/svg">
  <defs
     id="defs1" />
  <sodipodi:namedview
     id="namedview1"
     pagecolor="#ffffff"
     bordercolor="#000000"
     borderopacity="0.25"
     inkscape:showpageshadow="2"
     inkscape:pageopacity="0.0"
     inkscape:pagecheckerboard="0"
     inkscape:deskcolor="#d1d1d1"
     showgrid="false"
     inkscape:zoom="0.60495988"
     inkscape:cx="476.89113"
     inkscape:cy="549.62322"
     inkscape:window-width="1920"
     inkscape:window-height="1011"
     inkscape:window-x="0"
     inkscape:window-y="0"
     inkscape:window-maximized="1"
     inkscape:current-layer="layer1" />
  <g
     inkscape:groupmode="layer"
     id="layer1"
     inkscape:label="Layer 1"
     transform="translate(-61.941159,-115.98363)">
    <path
       style="fill:#000000"
       d="m 491.40961,1190.0106 c -30.89702,-19.3978 -84.7632,-64.6566 -97.40964,-81.8444 -2.2,-2.99 -4.37402,-5.4506 -4.83115,-5.4679 -0.45713,-0.017 -5.282,2.6436 -10.72192,5.9133 -20.04256,12.0466 -49.73156,21.7582 -75.77022,24.7853 -21.20614,2.4654 -41.26671,0.027 -57.6767,-7.0094 -7.46144,-3.1996 -8.60123,-7.3897 -2.84771,-10.4689 9.70696,-5.195 20.96876,-22.6356 25.74441,-39.8692 4.87008,-17.5742 7.18235,-53.1248 3.41379,-52.4862 -0.74589,0.1264 -6.44589,1.3264 -12.66666,2.6667 -8.26604,1.7809 -16.87336,2.4282 -31.97716,2.4047 -23.56202,-0.037 -34.18149,-2.2827 -52,-10.9987 -16.81944,-8.2272 -42.38485,-36.16449 -39.63994,-43.31762 0.48667,-1.26823 3.86017,-2.72143 8.55506,-3.68527 20.65076,-4.23951 41.62901,-13.03118 59.60448,-24.97935 13.19505,-8.77066 40.19535,-36.04976 37.92675,-38.31837 -0.3257,-0.32569 -6.85937,1.21918 -14.51927,3.43306 -22.19896,6.416 -42.26772,9.4912 -62.59374,9.59146 -19.94203,0.0984 -29.4634,-1.7133 -43.57281,-8.29076 -9.05551,-4.22146 -20.427188,-13.82797 -20.427188,-17.25637 0,-1.1996 3.354778,-4.8012 7.455058,-8.00356 22.44618,-17.53069 40.29282,-53.83636 39.00457,-79.34751 -0.4347,-8.60822 -1.08133,-10.50657 -6.64198,-19.49911 -10.53228,-17.03254 -10.37969,-16.50705 -10.3471,-35.6354 0.0218,-12.81901 -0.51815,-18.65773 -2.06877,-22.3689 l -2.09833,-5.02201 -11.65173,0.87711 c -6.40844,0.48241 -19.151717,2.36948 -28.318383,4.19348 -9.166666,1.82401 -18.035496,3.31868 -19.708512,3.32149 -6.219627,0.0104 -4.741678,-3.81118 5.797815,-14.99177 11.378976,-12.07113 20.775756,-24.23049 24.769854,-32.052 1.41803,-2.77688 4.360786,-13.87688 6.539456,-24.66666 7.91455,-39.19647 12.62238,-51.73709 23.98065,-63.87911 8.47789,-9.06289 12.7061,-14.76444 11.69728,-15.77326 -1.46233,-1.46233 -34.70379,11.27405 -36.34168,13.92422 -1.26564,2.04785 -6.981999,1.79347 -7.803473,-0.34726 -0.377986,-0.98501 4.104694,-9.83501 9.961513,-19.66666 11.63711,-19.53486 21.21084,-37.89332 23.59133,-45.23845 1.08647,-3.35237 1.2137,-12.31775 0.44467,-31.33333 -1.25545,-31.0431 -0.19607,-52.06438 3.16181,-62.73998 2.99418,-9.51925 11.87412,-19.40576 29.45787,-32.79699 12.00669,-9.14393 12.63321,-9.86611 11.89371,-13.70969 -0.93262,-4.84735 -5.13618,-8.48781 -16.40536,-14.20775 -8.49093,-4.30977 -12.42162,-4.77578 -29.7036,-3.52157 -11.73161,0.85141 -2.1287,-11.49084 20,-25.70523 17.89207,-11.49298 33.929,-16.92049 53.08556,-17.96616 6.44269,-0.35168 10.24776,-1.12269 10.24776,-2.07647 0,-1.80719 -10.98342,-7.91346 -14.23402,-7.91346 -1.25139,0 -2.62466,-0.56534 -3.0517,-1.2563 -0.65856,-1.06558 -3.18518,-1.66012 -14.71427,-3.46243 -0.73334,-0.11464 -2.53334,-0.31891 -4,-0.45393 -1.46667,-0.13502 -3.86667,-1.16726 -5.33334,-2.29387 -2.6231,-2.01493 -2.60132,-2.10125 1.33334,-5.28431 2.2,-1.77976 4.75,-3.2389 5.66666,-3.24254 0.91667,-0.004 1.66667,-0.60662 1.66667,-1.33996 0,-0.73333 0.79831,-1.33333 1.77403,-1.33333 0.97572,0 4.72571,-1.49749 8.33333,-3.32775 3.60762,-1.83027 7.60931,-3.33027 8.89264,-3.33334 1.28333,-0.003 2.33333,-0.50449 2.33333,-1.11428 0,-0.60978 2.55,-1.75817 5.66667,-2.55197 3.11666,-0.79381 8.28053,-2.41394 11.47525,-3.60031 3.19472,-1.18636 9.19472,-2.48973 13.33333,-2.89639 4.13861,-0.40665 9.02475,-0.91023 10.85808,-1.11907 1.83334,-0.20883 4.07828,-0.45707 4.98878,-0.55163 1.03093,-0.10707 1.48694,-1.71109 1.20878,-4.25193 -0.56739,-5.18286 -12.46609,-17.5106 -20.79089,-21.54056 -3.26736,-1.5817 -9.87051,-3.21414 -14.67366,-3.62763 -8.07723,-0.69536 -8.73301,-0.98823 -8.73301,-3.90017 0,-6.62236 28.60361,-19.39932 51.41786,-22.96787 10.66485,-1.66818 30.51245,-0.89319 39.0405,1.5244 2.81876,0.79909 5.51876,1.05015 6,0.55793 1.86123,-1.90374 -12.81732,-13.07964 -24.61751,-18.74318 -6.81089,-3.26891 -12.78235,-6.58892 -13.26991,-7.37781 -1.70221,-2.75424 2.93769,-5.18939 14.80588,-7.77055 24.24995,-5.27402 48.51133,-6.29283 65.09061,-2.73336 5.06613,1.08767 5.12318,1.0552 4.30896,-2.4528 -3.65992,-15.7685 -4.68802,-25.82984 -4.72988,-46.28841 -0.0597,-29.15886 0.7759,-30.33657 14.27193,-20.11617 18.69483,14.15741 43.36631,27.71651 59.48866,32.69414 17.14976,5.29484 26.78952,3.62425 68.07353,-11.79726 30.48156,-11.38628 37.84624,-13.38071 49.41005,-13.38071 11.30203,0 21.9727,3.53839 47.89236,15.88109 10.91735,5.19873 21.26169,9.45225 22.98743,9.45225 1.72574,0 9.35266,-2.36336 16.94871,-5.25191 21.15246,-8.04365 32.30663,-9.86327 55.40562,-9.03853 22.51965,0.80406 36.7925,3.8521 51.76905,11.05553 10.67578,5.13484 20.37278,13.40525 20.37278,17.3756 0,1.74618 -4.30046,5.4701 -13.601,11.77759 l -13.60099,9.224 30.60099,7.61572 c 39.95225,9.94299 48.38468,12.92377 55.601,19.65437 3.85013,3.59099 4.82472,8.69906 2,10.48257 -0.91667,0.57878 -6.28375,2.95075 -11.92684,5.27105 -5.6431,2.32029 -13.89065,6.42411 -18.3279,9.1196 -10.102,6.13664 -23.09153,17.88887 -22.23612,20.11805 0.3544,0.92353 -0.51886,2.73184 -1.94057,4.01847 -3.37441,3.0538 -2.33996,3.86927 5.21053,4.10754 11.83217,0.37339 21.2938,1.72771 27.07898,3.87604 3.19472,1.18637 8.35858,2.8065 11.47525,3.60031 3.11667,0.7938 5.66667,1.94219 5.66667,2.55197 0,0.60979 1.05,1.11121 2.33333,1.11428 1.28333,0.003 5.28502,1.50307 8.89264,3.33333 3.60761,1.83027 7.35761,3.32776 8.33333,3.32776 0.97571,0 1.77403,0.6 1.77403,1.33333 0,0.73333 0.75,1.33631 1.66666,1.33996 0.91667,0.004 3.46667,1.46278 5.66667,3.24254 3.93466,3.18306 3.95644,3.26938 1.33333,5.28431 -1.46666,1.12661 -3.86666,2.15885 -5.33333,2.29387 -1.46667,0.13502 -3.26667,0.33929 -4,0.45393 -11.52909,1.80231 -14.05571,2.39685 -14.71428,3.46243 -0.42703,0.69096 -1.8003,1.2563 -3.0517,1.2563 -3.25059,0 -14.23402,6.10627 -14.23402,7.91345 0,0.95379 3.80508,1.72479 10.24777,2.07647 19.15656,1.04568 35.19349,6.47319 53.08556,17.96617 9.53109,6.12231 8.78637,5.55252 17.73012,13.56529 5.47214,4.90252 7.61422,7.73652 7.33334,9.70205 -0.32696,2.28793 -1.21806,2.71697 -5.06346,2.43789 -17.4437,-1.26595 -21.17719,-0.80621 -30.05763,3.70126 -4.80645,2.43963 -9.04586,4.9322 -9.42092,5.53905 -1.16735,1.88881 4.55272,3.27777 34.14522,8.29119 36.85372,6.24359 34.66666,5.67793 34.66666,8.96611 0,1.6231 -6.3438,10.09973 -15.28419,20.42283 l -15.28419,17.64803 6.03807,11.88511 c 4.93082,9.70565 6.21408,13.74922 6.99794,22.05063 0.77281,8.18437 1.68699,11.11881 4.69078,15.05699 4.52477,5.93228 13.80497,13.43915 28.58074,23.11933 7.51562,4.92377 10.94213,7.9614 10.66667,9.45609 -0.25738,1.3966 -12.69664,8.29834 -34.00783,18.86874 -18.4811,9.16666 -33.9879,17.07346 -34.45955,17.57066 -0.47165,0.4972 3.20762,5.8972 8.17615,12 19.67247,24.16353 26.79426,38.09501 28.65162,56.04757 1.52613,14.75112 9.07166,38.01881 21.3109,65.71511 4.53693,10.26667 8.53784,20.27678 8.89091,22.24469 0.577,3.21599 0.12204,3.71264 -4.49636,4.90832 -16.9032,4.37615 -54.02767,9.51366 -68.74731,9.51366 h -10.44521 l 2.79298,5.47469 c 4.6217,9.05927 6.54646,21.66044 6.5714,43.02207 l 0.0231,19.83009 8.16117,8.72431 c 9.54983,10.20881 15.83625,22.38084 15.83778,30.66578 6.1e-4,3.29803 -1.89517,10.63196 -4.48055,17.33333 -10.08487,26.1402 -15.28844,63.81427 -9.76797,70.72042 2.14522,2.68369 13.53283,8.16817 26.91624,12.96334 9.34088,3.34677 12.09241,4.90835 12.41702,7.04709 0.54032,3.5599 -7.44795,9.53101 -21.75036,16.25804 -30.99331,14.57747 -63.45519,14.35028 -93.26907,-0.65276 -13.2501,-6.66776 -13.12209,-6.69843 -15.35444,3.67924 -4.28147,19.90364 2.6221,36.67897 24.35568,59.18308 14.74754,15.2704 14.82426,16.761 0.92191,17.9104 -5.49307,0.4541 -19.2874,0.8952 -30.65407,0.9802 -22.09761,0.1653 -32.90643,-1.4933 -42.87601,-6.5794 l -5.45874,-2.7849 0.92269,9.1125 c 2.46033,24.2982 10.77167,55.3075 19.41983,72.4547 7.18235,14.2408 20.3478,29.2174 30.32557,34.4974 3.38238,1.7899 4.02059,6.5191 1.03439,7.665 -1.08109,0.4149 -9.63109,-1.0816 -19,-3.3255 -33.4071,-8.0012 -48.13812,-9.9566 -77.70105,-10.3138 -35.34976,-0.4272 -50.2589,-3.5747 -78.12131,-16.4921 l -10.78798,-5.0015 -11.49906,16.1475 c -23.55643,33.079 -50.78743,66.0461 -59.59728,72.1514 -2.6424,1.8312 -6.33056,3.3294 -8.1959,3.3294 -1.86535,0 -8.64032,-3.2953 -15.05548,-7.3228 z"
       id="path1" />
    <path
       id="path4"
       style="fill:#ffb380"
       d="M 447.30249 294.64965 C 435.94959 294.63135 419.13696 297.63622 412.82397 300.81176 C 406.24581 304.12066 394.84713 304.53962 381.50952 301.96215 C 370.81109 299.89466 368.02565 299.80745 359.78296 301.28051 C 348.27192 303.33761 336.76115 308.41684 331.16577 313.90941 C 324.60184 320.35268 307.98448 339.59325 298.26928 351.99926 C 293.38797 358.23255 287.85644 365.24252 285.97827 367.57543 C 284.10009 369.90828 280.72011 375.30833 278.46655 379.57543 C 276.213 383.84247 272.89289 389.30155 271.08764 391.70629 C 266.89229 397.29484 254.46452 423.43509 250.75171 434.48168 C 235.54858 479.7145 243.88861 502.88696 302.94702 579.51488 C 314.89316 595.01489 328.64445 613.19011 333.50561 619.90355 L 342.3435 632.11058 L 343.93335 621.0559 C 347.69165 594.91726 354.93192 569.20517 359.50366 565.75902 C 362.06133 563.83106 365.33374 564.89077 365.33374 567.64769 C 365.33374 568.76384 363.89544 573.6636 362.13842 578.53441 C 353.52938 602.4007 348.92941 635.73387 348.781 675.33324 C 348.67364 703.97863 348.86748 706.58111 351.71264 714.81175 C 359.15912 736.35305 375.32008 751.50126 392.66577 753.19652 C 393.3991 753.26822 410.49921 749.18717 430.66577 744.12816 C 466.28929 735.19164 495.65729 729.33324 504.83374 729.33324 L 509.33374 729.33324 L 509.31616 699.66722 L 509.30053 669.99925 L 504.82202 659.74144 C 498.96242 646.32067 493.38669 639.4028 486.29858 636.76097 C 483.20139 635.60661 472.86702 633.15365 463.33374 631.3098 C 451.27928 628.97832 443.10433 626.54539 436.49389 623.31957 C 426.43499 618.41084 416.86026 609.4476 418.13257 606.13207 C 419.63333 602.22101 422.82069 602.75334 428.38647 607.843 C 434.92245 613.81992 442.5563 618.04411 443.93335 616.44652 C 444.46121 615.83411 445.90654 612.57331 447.14624 609.20043 C 452.74876 593.95718 463.60259 587.24151 480.97827 588.26488 C 489.66931 588.77676 492.813 589.66171 500.53491 593.77074 C 505.59538 596.46356 511.5889 598.66722 513.85522 598.66722 C 516.12155 598.66722 522.48158 596.42873 527.98803 593.69457 C 540.21977 587.62097 553.58883 586.20716 563.39038 589.95043 C 570.83822 592.79475 579.14507 602.07222 582.03491 610.77269 C 583.23343 614.38107 584.77758 617.33324 585.46655 617.33324 C 587.47356 617.33324 596.28786 611.36559 601.02319 606.80004 C 604.63735 603.31542 605.83084 602.83962 608.02319 604.01293 C 612.01355 606.14846 611.26719 608.43919 604.57202 614.61058 C 595.52879 622.94633 584.28922 627.60306 563.82007 631.49535 C 554.01875 633.35911 543.58773 635.94103 540.64038 637.23168 C 534.02893 640.12674 526.47999 650.59372 521.89624 663.22191 C 518.85485 671.60079 518.66577 673.79566 518.66577 700.72777 L 518.66577 729.33324 L 523.91186 729.33324 C 532.73086 729.33324 563.38735 735.53715 599.79663 744.69066 C 639.66603 754.71408 641.0206 754.75047 653.79272 746.13402 C 662.94956 739.95654 671.23671 728.91666 676.07202 716.45433 C 678.65132 709.80657 679.18131 705.43084 679.69507 686.54808 C 680.83889 644.50592 674.4928 598.82655 663.82788 572.3391 C 662.31114 568.57209 662.37322 567.72149 664.30835 565.78636 C 666.07311 564.0216 666.93212 563.8938 668.46655 565.16722 C 673.08 568.99604 679.53339 590.84518 683.28296 615.33324 C 684.51806 623.39986 685.8071 631.39533 686.14819 633.10082 C 686.68044 635.76213 687.99315 634.47244 695.406 623.99925 C 700.15646 617.28765 714.75299 597.89149 727.8435 580.89769 C 765.18778 532.41849 779.95857 508.35113 785.38452 487.13597 C 789.74736 470.07733 788.2343 454.91157 779.7771 430.88793 C 774.93172 417.12412 757.03023 381.34505 753.29858 377.96801 C 751.85123 376.65817 750.66577 374.46121 750.66577 373.08519 C 750.66577 371.70916 749.76075 370.23639 748.65405 369.81176 C 747.54735 369.38708 741.9282 362.95438 736.16772 355.51879 C 730.40728 348.08315 721.11291 337.04476 715.51342 330.98949 C 709.91399 324.93422 705.33374 319.12777 705.33374 318.08519 C 705.33374 315.58318 686.69094 304.02567 680.34741 302.59496 C 677.57173 301.96895 667.53017 302.03383 657.62866 302.74144 C 642.91416 303.79302 639.24573 303.67925 636.14428 302.07543 C 623.67961 295.62964 557.49639 293.0297 527.99975 297.82738 C 512.81084 300.29789 512.40934 300.29405 485.30249 297.4934 C 470.25203 295.93838 453.15194 294.65904 447.30249 294.64965 z M 459.07397 329.35277 C 460.43694 329.27754 461.65076 329.94428 462.23022 331.45433 C 463.77717 335.48561 458.93956 342.33667 450.08178 348.65746 C 445.27039 352.09078 441.33374 355.41907 441.33374 356.05199 C 441.33374 356.68492 447.34552 362.07046 454.69311 368.02074 C 462.04069 373.97101 469.00529 380.29537 470.17163 382.07543 C 474.66126 388.9275 468.33353 392.06741 462.56616 385.84886 C 460.78833 383.93201 454.8337 378.74733 449.33374 374.32738 C 428.65703 357.71104 428.43707 354.44197 447.07788 340.65355 C 449.87107 338.58744 453.03747 335.19449 454.11303 333.11449 C 455.32392 330.77291 457.32159 329.44949 459.07397 329.35277 z M 572.92553 329.35277 C 574.67792 329.44949 576.67559 330.77291 577.88647 333.11449 C 578.96208 335.19449 582.1284 338.58744 584.92163 340.65355 C 594.46134 347.70996 598.66724 352.39553 598.63647 355.92894 C 598.59787 360.36495 596.31278 362.98734 582.66577 374.26879 C 576.43244 379.4216 570.18971 384.91946 568.79272 386.48558 C 565.80432 389.83578 561.58753 390.21204 560.44311 387.22972 C 559.23328 384.07698 563.60652 379.02649 576.56616 368.61254 C 582.99153 363.44929 588.76736 358.29752 589.4021 357.16332 C 590.29269 355.57192 588.56515 353.63711 581.83374 348.69457 C 573.03906 342.23704 568.25497 335.40066 569.76928 331.45433 C 570.34875 329.94428 571.5626 329.27754 572.92553 329.35277 z M 322.57007 360.64379 C 324.03781 360.52695 325.87155 361.39265 327.33374 363.29808 C 340.85489 380.91856 345.04852 383.09211 362.06811 381.30199 C 378.18827 379.60647 394.38423 379.6849 402.9353 381.49926 C 423.23504 385.8064 439.80826 400.89789 444.64819 419.47972 C 448.44425 434.05373 447.05241 450.1869 438.04663 495.99926 C 435.52385 508.83249 432.98105 524.72629 432.39624 531.31761 C 431.56727 540.66108 430.86557 543.39155 429.21069 543.70824 C 428.04325 543.93166 426.30487 543.1705 425.34741 542.01683 C 422.81612 538.96686 424.40522 520.91256 429.3396 496.66722 C 435.71307 465.35058 437.47664 452.61095 437.49975 437.73168 C 437.52585 420.91262 435.26948 413.24083 427.79663 404.75121 C 414.44578 389.58384 398.43499 385.78198 363.73999 389.54027 C 347.39728 391.31056 342.09591 390.0916 332.79272 382.42308 C 327.105 377.73479 319.99975 367.43736 319.99975 363.88207 C 319.99975 361.86019 321.10228 360.76063 322.57007 360.64379 z M 709.44116 360.66136 C 710.90494 360.81137 711.99975 361.90941 711.99975 363.88207 C 711.99975 367.43736 704.89456 377.73479 699.20678 382.42308 C 689.90359 390.0916 684.60218 391.31056 668.25952 389.54027 C 635.83025 386.02742 621.35333 388.76238 607.86694 400.94652 C 591.55862 415.68015 590.26848 433.25124 601.33374 489.99926 C 607.54479 521.85262 609.13559 536.72041 606.79858 541.08715 C 605.1781 544.115 602.07301 544.94174 600.69507 542.71215 C 600.25729 542.00382 599.59934 536.80507 599.23413 531.15941 C 598.86891 525.51381 596.45628 509.74379 593.8728 496.11449 C 587.42575 462.1025 585.35077 447.62365 585.34155 436.61254 C 585.32195 413.14563 595.3333 396.36442 615.33374 386.3391 C 627.88332 380.04857 642.39864 378.69216 669.3103 381.29418 C 684.5763 382.77021 690.28961 380.89434 697.44702 372.05394 C 699.9513 368.96087 703.20091 364.9449 704.66967 363.13011 C 706.14398 361.30859 707.97738 360.51135 709.44116 360.66136 z M 380.54858 409.39379 C 400.01227 409.20855 416.24467 417.81778 425.11499 434.46019 C 429.66219 442.99163 433.9763 457.73532 432.81225 460.76879 C 432.05196 462.75007 427.27273 463.40115 426.2146 461.66722 C 425.87897 461.11722 424.91965 458.1159 424.08374 454.99926 C 422.59313 449.44153 420.98762 447.9913 419.31811 450.69261 C 418.85627 451.43989 415.54557 453.53617 411.96069 455.35277 C 385.48175 468.77068 347.78541 457.04373 345.64038 434.71996 C 345.28528 431.02442 344.61018 427.99925 344.14038 427.99926 C 342.79084 427.99926 333.02282 434.71053 329.13257 438.3098 C 325.21241 441.93674 320.94309 441.91389 320.23999 438.26293 C 319.53131 434.58308 329.92262 425.93478 342.91772 419.38793 C 356.02929 412.78239 368.87037 409.50493 380.54858 409.39379 z M 651.49194 409.40746 C 663.16895 409.52679 676.00416 412.7985 689.08374 419.38793 C 702.0788 425.93477 712.46819 434.58308 711.75952 438.26293 C 710.93365 442.5513 707.11354 441.5653 698.08764 434.73363 C 693.19458 431.03006 688.62394 427.99926 687.92944 427.99926 C 687.23494 427.99926 686.66577 430.12408 686.66577 432.71996 C 686.66577 443.35838 677.60156 453.37648 663.57007 458.24535 C 648.92268 463.3279 625.63831 460.53751 614.91186 452.41332 C 612.48036 450.57171 610.21874 449.33691 609.88452 449.67113 C 609.55029 450.00535 608.51582 452.91672 607.58569 456.13988 C 606.32174 460.51985 605.14814 462.10796 602.94116 462.42699 C 601.13267 462.68841 599.65937 461.9982 599.14038 460.64574 C 597.93579 457.50662 602.13519 443.37096 606.96264 434.31371 C 615.78233 417.76625 632.03027 409.20857 651.49194 409.40746 z M 514.55249 736.99144 C 494.53667 736.99397 474.33668 741.86456 435.33374 751.60472 C 405.87667 758.96101 393.83885 761.42657 389.66577 760.96019 C 382.83572 760.19686 382.84182 760.15912 387.45874 774.9309 C 396.47754 803.78649 411.62381 824.59367 429.50952 832.69847 C 434.65413 835.02973 455.27194 834.7804 493.66577 831.92308 C 511.41075 830.60247 520.58875 830.59715 538.33374 831.89965 C 571.56879 834.33906 592.47783 835.1239 597.77514 834.13011 C 610.05109 831.82714 625.74828 816.36661 635.5271 796.94847 C 640.49277 787.08795 647.99975 765.84585 647.99975 761.6555 C 647.99975 759.23802 647.53954 759.14262 642.00366 760.40941 C 634.74698 762.06998 631.88277 761.55717 592.66577 751.58519 C 554.39884 741.8548 534.56831 736.98891 514.55249 736.99144 z " />
    <path
       id="path12"
       style="display:inline;fill:#ffcc00"
       d="M 650.01538 417.33324 C 638.61588 417.33324 626.02252 424.33591 618.55053 434.82933 L 615.68335 438.85668 L 619.36499 442.70043 C 623.74476 447.27193 629.96206 450.40202 637.68921 451.92699 C 645.60695 453.48958 645.32567 453.49029 654.04663 451.87816 C 663.86581 450.06298 670.64189 446.66659 675.16577 441.29027 C 679.83401 435.74237 679.68576 430.58765 674.69507 424.90355 C 670.4549 420.07429 661.52081 417.33324 650.01538 417.33324 z M 380.22632 417.4309 C 376.89377 417.49003 373.28234 417.96876 368.86108 418.85668 C 355.16895 421.60644 349.36737 432.41456 356.82592 441.27855 C 365.49433 451.58035 383.38414 455.29609 400.43335 450.33519 C 403.23842 449.51898 408.00091 446.66046 411.01733 443.98363 L 416.50171 439.11644 L 413.54077 434.95824 C 408.59539 428.01312 399.81715 421.38302 392.81616 419.30394 C 388.33335 417.97269 384.511 417.35486 380.22632 417.4309 z M 386.66577 425.33324 C 387.67596 425.3333 388.68747 425.79139 390.33374 426.70824 C 394.82112 429.20738 395.90535 435.08817 392.5603 438.78441 C 389.74898 441.89088 385.61455 442.04813 381.55444 439.20433 C 377.24111 436.18317 378.0163 429.48303 382.99975 426.70824 C 384.64602 425.7916 385.65557 425.33318 386.66577 425.33324 z M 645.12085 425.81957 C 645.79677 425.8236 646.50077 425.91091 647.22632 426.09301 C 653.56435 427.68374 655.47564 435.68153 650.37085 439.25707 C 646.42613 442.02005 642.2427 441.88134 639.54077 438.89574 C 634.68922 433.53484 638.5869 425.78063 645.12085 425.81957 z " />
  </g>
</svg>
